<svg xmlns="http://www.w3.org/2000/svg" viewBox="0 0 640 380" role="img" aria-label="Strangle comprado — put K=90/3, call K=110/3">
<style>
  .payoff-light { display: inline; }
  .payoff-dark { display: none; }
  @media (prefers-color-scheme: dark) {
    .payoff-light { display: none; }
    .payoff-dark { display: inline; }
  }
</style>
<g class="payoff-light"><line x1="56" y1="244.2" x2="616" y2="244.2" stroke="#c9c4b5" stroke-width="1"/><clipPath id="clip-profit-long-strangle.svg"><rect x="56" y="24" width="560" height="220.2"/></clipPath><clipPath id="clip-loss-long-strangle.svg"><rect x="56" y="244.2" width="560" height="79.8"/></clipPath><path d="M 56.0,117.2 L 56.0,117.2 242.7,284.3 392.0,284.3 616.0,83.8 L 616.0,244.2 L 56.0,244.2 Z" fill="rgba(12,163,12,0.10)" clip-path="url(#clip-profit-long-strangle.svg)"/><path d="M 56.0,117.2 L 56.0,117.2 242.7,284.3 392.0,284.3 616.0,83.8 L 616.0,244.2 L 56.0,244.2 Z" fill="rgba(208,59,59,0.10)" clip-path="url(#clip-loss-long-strangle.svg)"/><line x1="56" y1="324" x2="616" y2="324" stroke="#c9c4b5" stroke-width="1"/><line x1="242.7" y1="24" x2="242.7" y2="324" stroke="#e4dfd0" stroke-width="1" stroke-dasharray="3,3"/><text x="242.7" y="342" text-anchor="middle" font-size="12" fill="#6b7280" font-family="system-ui, -apple-system, 'Segoe UI', sans-serif">K=90</text><line x1="392.0" y1="24" x2="392.0" y2="324" stroke="#e4dfd0" stroke-width="1" stroke-dasharray="3,3"/><text x="392.0" y="342" text-anchor="middle" font-size="12" fill="#6b7280" font-family="system-ui, -apple-system, 'Segoe UI', sans-serif">K=110</text><line x1="197.9" y1="24" x2="197.9" y2="324" stroke="#a8821f" stroke-width="1" stroke-dasharray="1,4" opacity="0.6"/><text x="197.9" y="16" text-anchor="middle" font-size="11" fill="#a8821f" font-family="system-ui, -apple-system, 'Segoe UI', sans-serif">BE=84</text><line x1="436.8" y1="24" x2="436.8" y2="324" stroke="#a8821f" stroke-width="1" stroke-dasharray="1,4" opacity="0.6"/><text x="436.8" y="16" text-anchor="middle" font-size="11" fill="#a8821f" font-family="system-ui, -apple-system, 'Segoe UI', sans-serif">BE=116</text><polyline points="56.0,97.1 242.7,264.2 616.0,264.2" fill="none" stroke="#2a78d6" stroke-width="2" stroke-dasharray="6,4" stroke-linecap="round" stroke-linejoin="round" opacity="0.85"/><polyline points="56.0,264.2 392.0,264.2 616.0,63.7" fill="none" stroke="#4a3aa7" stroke-width="2" stroke-dasharray="6,4" stroke-linecap="round" stroke-linejoin="round" opacity="0.85"/><polyline points="56.0,117.2 242.7,284.3 392.0,284.3 616.0,83.8" fill="none" stroke="#a8821f" stroke-width="2.5" stroke-linecap="round" stroke-linejoin="round"/><text x="336.0" y="368" text-anchor="middle" font-size="12" fill="#6b7280" font-family="system-ui, -apple-system, 'Segoe UI', sans-serif">Preço do ativo no vencimento</text><text x="16" y="174.0" text-anchor="middle" font-size="12" fill="#6b7280" font-family="system-ui, -apple-system, 'Segoe UI', sans-serif" transform="rotate(-90 16 174.0)">Resultado (R$)</text><text x="56" y="16" font-size="13" font-weight="600" fill="#33383f" font-family="system-ui, -apple-system, 'Segoe UI', sans-serif">Strangle comprado — put K=90/3, call K=110/3</text><line x1="480.0" y1="30" x2="494.0" y2="30" stroke="#2a78d6" stroke-width="2" stroke-dasharray="4,3" stroke-linecap="round"/><text x="498.0" y="34" font-size="11" fill="#6b7280" font-family="system-ui, -apple-system, 'Segoe UI', sans-serif">Put comprada</text><line x1="524.0" y1="30" x2="538.0" y2="30" stroke="#4a3aa7" stroke-width="2" stroke-dasharray="4,3" stroke-linecap="round"/><text x="542.0" y="34" font-size="11" fill="#6b7280" font-family="system-ui, -apple-system, 'Segoe UI', sans-serif">Call comprada</text><line x1="568.0" y1="30" x2="582.0" y2="30" stroke="#a8821f" stroke-width="2.5"  stroke-linecap="round"/><text x="586.0" y="34" font-size="11" fill="#6b7280" font-family="system-ui, -apple-system, 'Segoe UI', sans-serif">Combinado</text></g>
<g class="payoff-dark"><line x1="56" y1="244.2" x2="616" y2="244.2" stroke="#3a3f4d" stroke-width="1"/><clipPath id="clip-profit-long-strangle.svg"><rect x="56" y="24" width="560" height="220.2"/></clipPath><clipPath id="clip-loss-long-strangle.svg"><rect x="56" y="244.2" width="560" height="79.8"/></clipPath><path d="M 56.0,117.2 L 56.0,117.2 242.7,284.3 392.0,284.3 616.0,83.8 L 616.0,244.2 L 56.0,244.2 Z" fill="rgba(12,163,12,0.16)" clip-path="url(#clip-profit-long-strangle.svg)"/><path d="M 56.0,117.2 L 56.0,117.2 242.7,284.3 392.0,284.3 616.0,83.8 L 616.0,244.2 L 56.0,244.2 Z" fill="rgba(230,103,103,0.16)" clip-path="url(#clip-loss-long-strangle.svg)"/><line x1="56" y1="324" x2="616" y2="324" stroke="#3a3f4d" stroke-width="1"/><line x1="242.7" y1="24" x2="242.7" y2="324" stroke="#262b36" stroke-width="1" stroke-dasharray="3,3"/><text x="242.7" y="342" text-anchor="middle" font-size="12" fill="#8a877f" font-family="system-ui, -apple-system, 'Segoe UI', sans-serif">K=90</text><line x1="392.0" y1="24" x2="392.0" y2="324" stroke="#262b36" stroke-width="1" stroke-dasharray="3,3"/><text x="392.0" y="342" text-anchor="middle" font-size="12" fill="#8a877f" font-family="system-ui, -apple-system, 'Segoe UI', sans-serif">K=110</text><line x1="197.9" y1="24" x2="197.9" y2="324" stroke="#d4af37" stroke-width="1" stroke-dasharray="1,4" opacity="0.6"/><text x="197.9" y="16" text-anchor="middle" font-size="11" fill="#d4af37" font-family="system-ui, -apple-system, 'Segoe UI', sans-serif">BE=84</text><line x1="436.8" y1="24" x2="436.8" y2="324" stroke="#d4af37" stroke-width="1" stroke-dasharray="1,4" opacity="0.6"/><text x="436.8" y="16" text-anchor="middle" font-size="11" fill="#d4af37" font-family="system-ui, -apple-system, 'Segoe UI', sans-serif">BE=116</text><polyline points="56.0,97.1 242.7,264.2 616.0,264.2" fill="none" stroke="#3987e5" stroke-width="2" stroke-dasharray="6,4" stroke-linecap="round" stroke-linejoin="round" opacity="0.85"/><polyline points="56.0,264.2 392.0,264.2 616.0,63.7" fill="none" stroke="#9085e9" stroke-width="2" stroke-dasharray="6,4" stroke-linecap="round" stroke-linejoin="round" opacity="0.85"/><polyline points="56.0,117.2 242.7,284.3 392.0,284.3 616.0,83.8" fill="none" stroke="#d4af37" stroke-width="2.5" stroke-linecap="round" stroke-linejoin="round"/><text x="336.0" y="368" text-anchor="middle" font-size="12" fill="#8a877f" font-family="system-ui, -apple-system, 'Segoe UI', sans-serif">Preço do ativo no vencimento</text><text x="16" y="174.0" text-anchor="middle" font-size="12" fill="#8a877f" font-family="system-ui, -apple-system, 'Segoe UI', sans-serif" transform="rotate(-90 16 174.0)">Resultado (R$)</text><text x="56" y="16" font-size="13" font-weight="600" fill="#e8e6e1" font-family="system-ui, -apple-system, 'Segoe UI', sans-serif">Strangle comprado — put K=90/3, call K=110/3</text><line x1="480.0" y1="30" x2="494.0" y2="30" stroke="#3987e5" stroke-width="2" stroke-dasharray="4,3" stroke-linecap="round"/><text x="498.0" y="34" font-size="11" fill="#8a877f" font-family="system-ui, -apple-system, 'Segoe UI', sans-serif">Put comprada</text><line x1="524.0" y1="30" x2="538.0" y2="30" stroke="#9085e9" stroke-width="2" stroke-dasharray="4,3" stroke-linecap="round"/><text x="542.0" y="34" font-size="11" fill="#8a877f" font-family="system-ui, -apple-system, 'Segoe UI', sans-serif">Call comprada</text><line x1="568.0" y1="30" x2="582.0" y2="30" stroke="#d4af37" stroke-width="2.5"  stroke-linecap="round"/><text x="586.0" y="34" font-size="11" fill="#8a877f" font-family="system-ui, -apple-system, 'Segoe UI', sans-serif">Combinado</text></g>
</svg>